<?xml version="1.0" encoding="UTF-8" standalone="no"?>
<!-- Created with Inkscape (http://www.inkscape.org/) -->

<svg
   xmlns:dc="http://purl.org/dc/elements/1.1/"
   xmlns:cc="http://creativecommons.org/ns#"
   xmlns:rdf="http://www.w3.org/1999/02/22-rdf-syntax-ns#"
   xmlns:svg="http://www.w3.org/2000/svg"
   xmlns="http://www.w3.org/2000/svg"
   xmlns:sodipodi="http://sodipodi.sourceforge.net/DTD/sodipodi-0.dtd"
   xmlns:inkscape="http://www.inkscape.org/namespaces/inkscape"
   width="40.011703mm"
   height="40.011703mm"
   viewBox="0 0 40.011703 40.011703"
   version="1.1"
   id="svg5199"
   inkscape:version="0.92.4 5da689c313, 2019-01-14"
   sodipodi:docname="generatorUiMockup.svg">
  <defs
     id="defs5193" />
  <sodipodi:namedview
     id="base"
     pagecolor="#ffffff"
     bordercolor="#666666"
     borderopacity="1.0"
     inkscape:pageopacity="0.0"
     inkscape:pageshadow="2"
     inkscape:zoom="1.879394"
     inkscape:cx="14.286225"
     inkscape:cy="45.3925"
     inkscape:document-units="mm"
     inkscape:current-layer="layer1"
     showgrid="false"
     fit-margin-top="0"
     fit-margin-left="0"
     fit-margin-right="0"
     fit-margin-bottom="0"
     inkscape:window-width="1872"
     inkscape:window-height="983"
     inkscape:window-x="24"
     inkscape:window-y="48"
     inkscape:window-maximized="0" />
  <metadata
     id="metadata5196">
    <rdf:RDF>
      <cc:Work
         rdf:about="">
        <dc:format>image/svg+xml</dc:format>
        <dc:type
           rdf:resource="http://purl.org/dc/dcmitype/StillImage" />
        <dc:title></dc:title>
      </cc:Work>
    </rdf:RDF>
  </metadata>
  <g
     inkscape:label="Layer 1"
     inkscape:groupmode="layer"
     id="layer1"
     transform="translate(-40.69642,-85.392011)">
    <rect
       style="opacity:1;fill:#232629;fill-opacity:1;fill-rule:nonzero;stroke:none;stroke-width:1.64435387;stroke-linecap:round;stroke-linejoin:round;stroke-miterlimit:4;stroke-dasharray:none;stroke-dashoffset:34.92283249;stroke-opacity:1"
       id="rect5746"
       width="108.431"
       height="47.094002"
       x="-17.364643"
       y="81.688652"
       ry="0" />
    <path
       style="opacity:1;fill:#ff6600;fill-opacity:1;fill-rule:nonzero;stroke:#3daee9;stroke-width:1.85063004;stroke-linecap:round;stroke-linejoin:round;stroke-miterlimit:4;stroke-dasharray:none;stroke-dashoffset:34.92283249;stroke-opacity:1"
       d="m 63.50298,82.613812 c -1.022972,0 -2.166292,0.148828 -2.540931,0.330729 -2.008532,0.975217 -4.484918,5.216724 -7.761801,13.295313 -1.239578,3.055937 -2.521408,6.151566 -2.848404,6.879166 -0.551995,1.22827 -1.116761,2.60879 -2.003496,4.89479 -2.024452,5.21902 -4.766146,11.61104 -5.577954,13.00541 -0.452879,0.77789 -1.176845,2.08345 -1.608688,2.90112 -1.512167,2.86324 -3.977245,4.25658 -5.898345,3.33364 -2.106951,-1.01222 -4.160346,-3.9707 -6.304009,-9.08316 -0.820343,-1.95643 -1.686128,-3.94064 -1.924431,-4.40955 -0.385716,-0.75898 -1.290061,-3.07347 -2.245341,-5.74746 -0.181966,-0.50932 -1.062721,-2.59292 -1.957503,-4.63021 -0.894785,-2.03729 -1.775098,-4.120882 -1.95647,-4.630205 -0.181373,-0.509323 -0.86665,-2.176198 -1.522387,-3.704166 -0.655753,-1.527969 -1.342542,-3.194844 -1.526522,-3.704167 -0.429396,-1.188725 -2.47839,-4.885005 -3.373438,-6.085417 -1.498274,-2.009431 -2.194953,-2.38125 -4.4596765,-2.38125 -2.400847,0 -2.816307,0.218231 -4.53409,2.38125 -1.865476,2.348966 -4.077208,6.851449 -6.628536,13.49375 -0.307431,0.800365 -1.287992,3.181615 -2.179195,5.291665 -0.891218,2.11005 -1.710306,4.13412 -1.820044,4.49792 -0.109655,0.3638 -0.483405,1.25677 -0.83044,1.98438 -0.598392,1.25457 -3.9451427,9.30549 -4.4545075,10.71562 -0.200521,0.85493 -1.247411,2.3088 -1.247411,2.3088 -0.248868,0.50651 -2.144402,2.9002 -3.129583,3.57818 -0.327156,0.22515 -1.011688,0.41346 -1.609204,0.45424 v 0.26923 c 1.955948,-0.0199 2.452462,-0.26294 3.761527,-1.71566 0.816631,-0.90625 2.8152368,-4.38837 3.6447385,-6.35 0.307677,-0.7276 1.163617,-2.75166 1.902209,-4.49791 0.738577,-1.74625 1.920024,-4.60375 2.62568,-6.35 0.705655,-1.74626 1.604632,-3.88938 1.997294,-4.76251 0.392646,-0.87312 0.876774,-2.06375 1.075903,-2.64583 0.89324798,-2.611223 4.577864,-11.062322 5.726266,-13.133564 1.241042,-2.238346 2.546552,-3.867465 3.839559,-4.791956 0.832521,-0.595247 2.8014195,-0.595247 3.6803955,0 0.894964,0.60607 2.73904,3.07554 3.850411,5.156274 0.864106,1.617784 4.014683,8.810286 4.782137,10.917163 0.212033,0.582083 1.199935,2.963333 2.195215,5.291663 0.995263,2.32834 1.897453,4.53099 2.005045,4.8948 0.107543,0.3638 0.480854,1.25677 0.829407,1.98437 0.348537,0.72761 1.23478,2.87073 1.969906,4.7625 1.597832,4.11176 3.198116,7.19495 4.668965,8.99584 1.630208,1.99599 2.133746,2.24895 4.474145,2.24895 2.233964,0 2.83347,-0.27002 4.114479,-1.85208 0.821405,-1.01443 3.225793,-5.48699 4.409033,-8.20208 0.412216,-0.94589 0.994796,-2.25558 1.295011,-2.91042 0.30022,-0.65484 0.782402,-1.84547 1.071253,-2.64583 0.288832,-0.80037 0.799883,-2.05052 1.135848,-2.77813 0.335963,-0.7276 1.116005,-2.6326 1.733227,-4.23333 1.183259,-3.06864 4.502997,-11.162761 5.588805,-13.626045 1.161603,-2.635192 3.240997,-6.051944 4.432289,-7.283794 1.122177,-1.160391 1.246823,-1.208217 2.969326,-1.131197 1.714897,0.07668 1.860995,0.15407 3.155881,1.668116 1.275183,1.491028 3.392643,5.200809 4.153233,7.276042 0.32571,0.888667 3.62278,8.884438 5.94589,14.419788 0.61073,1.45521 1.27495,3.06256 1.47588,3.57188 0.20091,0.50932 0.67011,1.64042 1.04283,2.51354 0.37274,0.87313 1.06416,2.54 1.53634,3.70417 1.23676,3.04922 2.17043,5.12135 2.92075,6.48229 0.89535,1.62401 3.20815,4.29466 4.06022,4.68809 0.46492,0.21467 1.50927,0.33195 2.51147,0.32763 v -0.56069 c -2.52036,0.0705 -3.94031,-1.33844 -6.80526,-6.65644 -0.58238,-1.08103 -6.37149,-14.94757 -6.97891,-16.7163 -0.1999,-0.58208 -0.79582,-2.01083 -1.32395,-3.175 -0.52811,-1.164167 -1.12739,-2.592917 -1.3317,-3.175 -0.63279,-1.802852 -3.41293,-8.113088 -4.36976,-9.918258 -0.50024,-0.943737 -1.5978,-2.461784 -2.43913,-3.373437 C 65.388943,82.64186 65.33111,82.613812 63.50298,82.613812 Z"
       id="rect2153"
       inkscape:connector-curvature="0"
       sodipodi:nodetypes="ssccscccccccccscscccccccccccccscccsccccccccscccccccccccscccccccccccccs" />
    <path
       style="opacity:1;fill:#3daee9;fill-opacity:0.16115703;fill-rule:nonzero;stroke:none;stroke-width:2.06399989;stroke-linecap:square;stroke-linejoin:round;stroke-miterlimit:4;stroke-dasharray:none;stroke-dashoffset:34.92283249;stroke-opacity:1;paint-order:normal"
       d="m 11.902275,82.684127 19.37393,38.214633 c 6.9314,13.67204 13.29212,2.85943 21.64702,-24.451984 6.806935,-22.251263 13.76527,-10.448356 13.76527,-10.448356 4.778272,8.361977 16.015887,38.00596 24.377864,42.78423 H -17.364645 c 12.24948,-9.27946 18.94137,-45.62684 29.26692,-46.098523 z"
       id="rect2776"
       inkscape:connector-curvature="0"
       sodipodi:nodetypes="csscccc" />
  </g>
</svg>
