<?xml version="1.0" encoding="UTF-8" standalone="no"?>
<!-- Created with Inkscape (http://www.inkscape.org/) -->

<svg
   xmlns:dc="http://purl.org/dc/elements/1.1/"
   xmlns:cc="http://creativecommons.org/ns#"
   xmlns:rdf="http://www.w3.org/1999/02/22-rdf-syntax-ns#"
   xmlns:svg="http://www.w3.org/2000/svg"
   xmlns="http://www.w3.org/2000/svg"
   xmlns:sodipodi="http://sodipodi.sourceforge.net/DTD/sodipodi-0.dtd"
   xmlns:inkscape="http://www.inkscape.org/namespaces/inkscape"
   width="106.09786mm"
   height="106.16541mm"
   viewBox="0 0 106.09786 106.16541"
   version="1.1"
   id="svg8"
   sodipodi:docname="iconMinus.svg"
   inkscape:version="0.92.2 2405546, 2018-03-11">
  <defs
     id="defs2" />
  <sodipodi:namedview
     id="base"
     pagecolor="#ffffff"
     bordercolor="#666666"
     borderopacity="1.0"
     inkscape:pageopacity="0.0"
     inkscape:pageshadow="2"
     inkscape:zoom="1.1703125"
     inkscape:cx="102.09786"
     inkscape:cy="247.11029"
     inkscape:document-units="mm"
     inkscape:current-layer="layer1"
     showgrid="false"
     inkscape:window-width="1878"
     inkscape:window-height="989"
     inkscape:window-x="21"
     inkscape:window-y="45"
     inkscape:window-maximized="0"
     fit-margin-top="0"
     fit-margin-left="0"
     fit-margin-right="0"
     fit-margin-bottom="0" />
  <metadata
     id="metadata5">
    <rdf:RDF>
      <cc:Work
         rdf:about="">
        <dc:format>image/svg+xml</dc:format>
        <dc:type
           rdf:resource="http://purl.org/dc/dcmitype/StillImage" />
        <dc:title></dc:title>
      </cc:Work>
    </rdf:RDF>
  </metadata>
  <g
     inkscape:label="Layer 1"
     inkscape:groupmode="layer"
     id="layer1"
     transform="translate(-3.08341,-124.90444)">
    <g
       id="g1450"
       transform="translate(-67.759101,67.468943)"
       style="fill:#c5d0d3;fill-opacity:0.51372549">
      <path
         style="fill:#c5d0d3;fill-opacity:0.51372549;stroke-width:0.26458332"
         d="m 111.19141,59.584749 c 0,-0.05494 0.20836,-0.263301 0.46302,-0.463021 0.41964,-0.329107 0.429,-0.319749 0.0999,0.0999 -0.34565,0.440729 -0.56292,0.580887 -0.56292,0.363126 z"
         id="path1458"
         inkscape:connector-curvature="0" />
      <path
         style="fill:#c5d0d3;fill-opacity:0.51372549;stroke-width:0.26458332"
         d="m 77.275133,124.85599 c 0.190996,-0.0764 0.419199,-0.067 0.507118,0.0209 0.08792,0.0879 -0.06835,0.15046 -0.347266,0.13897 -0.308224,-0.0127 -0.370919,-0.0754 -0.159852,-0.15985 z m 92.868747,0 c 0.191,-0.0764 0.4192,-0.067 0.50712,0.0209 0.0879,0.0879 -0.0684,0.15046 -0.34726,0.13897 -0.30823,-0.0127 -0.37092,-0.0754 -0.15986,-0.15985 z"
         id="path1456"
         inkscape:connector-curvature="0" />
      <path
         style="fill:#c5d0d3;fill-opacity:0.51372549;stroke-width:0.26458332"
         d="m 85.74425,124.83841 c 4.412448,-0.0407 11.556198,-0.0407 15.875,6e-5 4.3188,0.0408 0.70862,0.0741 -8.022633,0.0741 -8.73125,-3e-5 -12.264815,-0.0334 -7.852367,-0.0741 z m 60.58958,0 c 4.41245,-0.0407 11.5562,-0.0407 15.875,6e-5 4.3188,0.0408 0.70862,0.0741 -8.02263,0.0741 -8.73125,-3e-5 -12.26482,-0.0334 -7.85237,-0.0741 z M 85.063805,95.998849 c 4.474765,-0.04066 11.797109,-0.04066 16.271875,0 4.47477,0.04067 0.81359,0.07394 -8.135938,0.07394 -8.949531,0 -12.610703,-0.03327 -8.135937,-0.07394 z m 61.383335,0 c 4.47476,-0.04066 11.79711,-0.04066 16.27187,0 4.47477,0.04067 0.8136,0.07394 -8.13593,0.07394 -8.94954,0 -12.61071,-0.03327 -8.13594,-0.07394 z"
         id="path1454"
         inkscape:connector-curvature="0" />
      <path
         style="fill:#c5d0d3;fill-opacity:0.51372549;stroke-width:0.26458332"
         d="m 109.31362,124.77214 -16.589724,-0.006 c -15.558076,-0.005 -16.656607,-0.0362 -17.665349,-0.49436 -1.54769,-0.70296 -2.897379,-1.98196 -3.60275,-3.41406 -0.605414,-1.22916 -0.613286,-1.36231 -0.613286,-10.37327 0,-8.90139 0.01447,-9.15517 0.582666,-10.21727 0.916459,-1.713093 1.833894,-2.651649 3.311951,-3.388196 l 1.368657,-0.68203 h 16.603915 16.60392 29.15564 16.60392 16.60391 l 1.36866,0.68203 c 1.551,0.772898 2.53656,1.820439 3.34115,3.551306 0.52737,1.13448 0.55347,1.61482 0.55347,10.18646 0,8.91608 -0.006,9.00694 -0.62299,10.24949 -0.71683,1.44249 -2.04716,2.7034 -3.59305,3.40554 -1.00874,0.45817 -2.10727,0.48891 -17.66535,0.49436 l -16.58972,0.006 z"
         id="path1452"
         inkscape:connector-curvature="0"
         sodipodi:nodetypes="cccssssccccccccsccccc" />
    </g>
  </g>
</svg>
