<?xml version="1.0" encoding="UTF-8" standalone="no"?>
<!-- Created with Inkscape (http://www.inkscape.org/) -->

<svg
   xmlns:dc="http://purl.org/dc/elements/1.1/"
   xmlns:cc="http://creativecommons.org/ns#"
   xmlns:rdf="http://www.w3.org/1999/02/22-rdf-syntax-ns#"
   xmlns:svg="http://www.w3.org/2000/svg"
   xmlns="http://www.w3.org/2000/svg"
   xmlns:sodipodi="http://sodipodi.sourceforge.net/DTD/sodipodi-0.dtd"
   xmlns:inkscape="http://www.inkscape.org/namespaces/inkscape"
   width="13.874646mm"
   height="13.380886mm"
   viewBox="0 0 13.874646 13.380886"
   version="1.1"
   id="svg5199"
   inkscape:version="0.92.2 2405546, 2018-03-11"
   sodipodi:docname="iconForwards.svg">
  <defs
     id="defs5193" />
  <sodipodi:namedview
     id="base"
     pagecolor="#ffffff"
     bordercolor="#666666"
     borderopacity="1.0"
     inkscape:pageopacity="0.0"
     inkscape:pageshadow="2"
     inkscape:zoom="6.5424355"
     inkscape:cx="29.05114"
     inkscape:cy="34.091675"
     inkscape:document-units="mm"
     inkscape:current-layer="layer1"
     showgrid="false"
     fit-margin-top="0"
     fit-margin-left="0"
     fit-margin-right="0"
     fit-margin-bottom="0"
     inkscape:window-width="1878"
     inkscape:window-height="989"
     inkscape:window-x="21"
     inkscape:window-y="45"
     inkscape:window-maximized="0" />
  <metadata
     id="metadata5196">
    <rdf:RDF>
      <cc:Work
         rdf:about="">
        <dc:format>image/svg+xml</dc:format>
        <dc:type
           rdf:resource="http://purl.org/dc/dcmitype/StillImage" />
        <dc:title></dc:title>
      </cc:Work>
    </rdf:RDF>
  </metadata>
  <g
     inkscape:label="Layer 1"
     inkscape:groupmode="layer"
     id="layer1"
     transform="translate(-57.631391,-99.530006)">
    <g
       id="g11245"
       transform="translate(1.2536745,0.80882211)"
       style="fill:#c5d0d3;fill-opacity:0.51372549">
      <path
         style="fill:#c5d0d3;fill-opacity:0.51372549;stroke-width:0.01543354"
         d="m 59.549192,107.07459 1.659069,-1.66296 -1.581901,-1.5858 -1.581901,-1.5858 1.589636,1.5858 1.589636,1.58579 -1.666804,1.66297 -1.666805,1.66296 z"
         id="path11255"
         inkscape:connector-curvature="0" />
      <path
         style="fill:#c5d0d3;fill-opacity:0.51372549;stroke-width:0.01543354"
         d="m 66.895567,108.75684 3.341345,-3.34522 -3.341345,-3.34522 -3.341344,-3.345216 3.34907,3.345216 3.34907,3.34522 -3.34907,3.34522 -3.34907,3.34523 z m -10.21706,1.78637 -0.300722,-0.30102 0.763857,-0.76003 0.763856,-0.76004 -0.75612,0.76006 -0.75612,0.76005 0.300702,0.301 c 0.165386,0.16555 0.29723,0.301 0.292985,0.301 -0.0042,0 -0.143041,-0.13546 -0.308438,-0.30102 z m 0.532518,-9.12888 -0.833308,-0.83341 0.324007,-0.32024 0.324007,-0.320246 -0.316243,0.320286 -0.316242,0.32029 0.83326,0.83337 c 0.458293,0.45835 0.829788,0.83337 0.825543,0.83337 -0.0042,0 -0.382705,-0.37504 -0.841024,-0.83342 z"
         id="path11253"
         inkscape:connector-curvature="0" />
      <path
         style="fill:#c5d0d3;fill-opacity:0.51372549;stroke-width:0.01543354"
         d="m 57.604584,111.46929 c -0.343704,-0.34378 -0.621443,-0.62506 -0.617199,-0.62506 0.0042,0 0.288929,0.28128 0.632632,0.62506 0.343704,0.34378 0.621443,0.62506 0.617199,0.62506 -0.0042,0 -0.288929,-0.28128 -0.632632,-0.62506 z m 0.01543,-12.130764 c 0.335214,-0.335294 0.612951,-0.609625 0.617196,-0.609625 0.0042,0 -0.266549,0.274331 -0.601762,0.609625 -0.335213,0.335293 -0.612951,0.609625 -0.617195,0.609625 -0.0042,0 0.266548,-0.274332 0.601761,-0.609625 z"
         id="path11251"
         inkscape:connector-curvature="0" />
      <path
         style="fill:#c5d0d3;fill-opacity:0.51372549;stroke-width:0.01543354"
         d="m 65.992651,105.95567 0.540055,-0.54403 -0.447449,-0.45144 -0.447448,-0.45144 0.455226,0.45144 0.455226,0.45143 -0.547833,0.54403 -0.547832,0.54403 z"
         id="path11249"
         inkscape:connector-curvature="0" />
      <path
         style="fill:#c5d0d3;fill-opacity:0.51372549;stroke-width:0.01543354"
         d="m 57.31907,111.16834 -0.925953,-0.92605 2.415298,-2.41533 2.415297,-2.41534 -2.415313,-2.41535 -2.415314,-2.41535 0.92601,-0.926007 0.92601,-0.92601 3.341338,3.341367 3.341339,3.34136 -3.341379,3.34138 -3.34138,3.34138 z m 5.309105,-0.001 -0.925986,-0.92719 2.420673,-2.41378 2.420672,-2.41378 -2.420672,-2.41472 -2.420673,-2.41473 0.926028,-0.927042 0.926027,-0.927045 3.341338,3.341367 3.341338,3.34136 -3.341379,3.34138 -3.341379,3.34138 z"
         id="path11247"
         inkscape:connector-curvature="0" />
    </g>
  </g>
</svg>
