<?xml version="1.0" encoding="UTF-8" standalone="no"?>
<!-- Created with Inkscape (http://www.inkscape.org/) -->

<svg
   xmlns:dc="http://purl.org/dc/elements/1.1/"
   xmlns:cc="http://creativecommons.org/ns#"
   xmlns:rdf="http://www.w3.org/1999/02/22-rdf-syntax-ns#"
   xmlns:svg="http://www.w3.org/2000/svg"
   xmlns="http://www.w3.org/2000/svg"
   xmlns:sodipodi="http://sodipodi.sourceforge.net/DTD/sodipodi-0.dtd"
   xmlns:inkscape="http://www.inkscape.org/namespaces/inkscape"
   width="12.928961mm"
   height="13.365588mm"
   viewBox="0 0 12.928961 13.365588"
   version="1.1"
   id="svg5199"
   inkscape:version="0.92.2 2405546, 2018-03-11"
   sodipodi:docname="iconStepBackwardsBackwards.svg">
  <defs
     id="defs5193" />
  <sodipodi:namedview
     id="base"
     pagecolor="#ffffff"
     bordercolor="#666666"
     borderopacity="1.0"
     inkscape:pageopacity="0.0"
     inkscape:pageshadow="2"
     inkscape:zoom="11.313709"
     inkscape:cx="13.821725"
     inkscape:cy="25.181983"
     inkscape:document-units="mm"
     inkscape:current-layer="layer1"
     showgrid="false"
     fit-margin-top="0"
     fit-margin-left="0"
     fit-margin-right="0"
     fit-margin-bottom="0"
     inkscape:window-width="1872"
     inkscape:window-height="983"
     inkscape:window-x="24"
     inkscape:window-y="48"
     inkscape:window-maximized="0" />
  <metadata
     id="metadata5196">
    <rdf:RDF>
      <cc:Work
         rdf:about="">
        <dc:format>image/svg+xml</dc:format>
        <dc:type
           rdf:resource="http://purl.org/dc/dcmitype/StillImage" />
        <dc:title></dc:title>
      </cc:Work>
    </rdf:RDF>
  </metadata>
  <g
     inkscape:label="Layer 1"
     inkscape:groupmode="layer"
     id="layer1"
     transform="translate(-63.428816,-99.537642)">
    <path
       inkscape:connector-curvature="0"
       id="path11255"
       d="m 60.802866,107.88341 1.65907,-1.66296 -1.581902,-1.5858 -1.581901,-1.5858 1.589636,1.5858 1.589636,1.58579 -1.666804,1.66297 -1.666805,1.66296 z"
       style="fill:#c5d0d3;fill-opacity:0.51372549;stroke-width:0.01543354" />
    <path
       inkscape:connector-curvature="0"
       id="path11251"
       d="m 58.858259,112.27811 c -0.343704,-0.34378 -0.621443,-0.62506 -0.617199,-0.62506 0.0042,0 0.288929,0.28128 0.632632,0.62506 0.343704,0.34378 0.621443,0.62506 0.617199,0.62506 -0.0042,0 -0.288929,-0.28128 -0.632632,-0.62506 z m 0.01543,-12.13076 c 0.335214,-0.335296 0.612951,-0.609627 0.617196,-0.609627 0.0042,0 -0.266549,0.274331 -0.601762,0.609627 -0.335213,0.33529 -0.612951,0.60962 -0.617195,0.60962 -0.0042,0 0.266548,-0.27433 0.601761,-0.60962 z"
       style="fill:#c5d0d3;fill-opacity:0.51372549;stroke-width:0.01543354" />
    <path
       inkscape:connector-curvature="0"
       id="path11249"
       d="m 67.246325,106.76449 0.540055,-0.54403 -0.447449,-0.45144 -0.447448,-0.45144 0.455226,0.45144 0.455226,0.45143 -0.547833,0.54403 -0.547832,0.54403 z"
       style="fill:#c5d0d3;fill-opacity:0.51372549;stroke-width:0.01543354" />
    <g
       id="g834"
       transform="translate(2.5186046)">
      <path
         inkscape:connector-curvature="0"
         id="path11247"
         d="m 71.987089,99.537642 0.926041,0.927068 0.926042,0.92708 -2.421041,2.41484 -2.420524,2.41484 2.420524,2.4138 2.421041,2.41381 -0.926042,0.92707 -0.926041,0.92708 -3.341398,-3.3414 -3.341398,-3.3414 3.341398,-3.34139 z"
         style="fill:#c5d0d3;fill-opacity:0.51372549;stroke-width:0.01543354"
         sodipodi:nodetypes="ccccccccccccc" />
      <path
         inkscape:connector-curvature="0"
         id="path11247-3"
         d="m 67.593007,99.537643 0.926041,0.927057 0.926042,0.92709 -2.421041,2.41483 -2.420524,2.41485 2.420524,2.41379 2.421041,2.41382 -0.926042,0.92707 -0.926041,0.92708 -3.341398,-3.3414 -3.341398,-3.3414 3.341398,-3.3414 z"
         style="fill:#c5d0d3;fill-opacity:0.51372549;stroke-width:0.01543354"
         sodipodi:nodetypes="ccccccccccccc" />
    </g>
  </g>
</svg>
