<?xml version="1.0" encoding="UTF-8" standalone="no"?>
<!-- Created with Inkscape (http://www.inkscape.org/) -->

<svg
   xmlns:dc="http://purl.org/dc/elements/1.1/"
   xmlns:cc="http://creativecommons.org/ns#"
   xmlns:rdf="http://www.w3.org/1999/02/22-rdf-syntax-ns#"
   xmlns:svg="http://www.w3.org/2000/svg"
   xmlns="http://www.w3.org/2000/svg"
   xmlns:sodipodi="http://sodipodi.sourceforge.net/DTD/sodipodi-0.dtd"
   xmlns:inkscape="http://www.inkscape.org/namespaces/inkscape"
   width="7.2035151mm"
   height="8.2211876mm"
   viewBox="0 0 7.203515 8.2211875"
   version="1.1"
   id="svg5199"
   inkscape:version="0.92.2 2405546, 2018-03-11"
   sodipodi:docname="iconPause.svg">
  <defs
     id="defs5193" />
  <sodipodi:namedview
     id="base"
     pagecolor="#ffffff"
     bordercolor="#666666"
     borderopacity="1.0"
     inkscape:pageopacity="0.0"
     inkscape:pageshadow="2"
     inkscape:zoom="9.252401"
     inkscape:cx="-14.173616"
     inkscape:cy="18.293178"
     inkscape:document-units="mm"
     inkscape:current-layer="layer1"
     showgrid="false"
     fit-margin-top="0"
     fit-margin-left="0"
     fit-margin-right="0"
     fit-margin-bottom="0"
     inkscape:window-width="1878"
     inkscape:window-height="989"
     inkscape:window-x="21"
     inkscape:window-y="45"
     inkscape:window-maximized="0" />
  <metadata
     id="metadata5196">
    <rdf:RDF>
      <cc:Work
         rdf:about="">
        <dc:format>image/svg+xml</dc:format>
        <dc:type
           rdf:resource="http://purl.org/dc/dcmitype/StillImage" />
        <dc:title></dc:title>
      </cc:Work>
    </rdf:RDF>
  </metadata>
  <g
     inkscape:label="Layer 1"
     inkscape:groupmode="layer"
     id="layer1"
     transform="translate(-60.594628,-102.25603)">
    <g
       id="g11306"
       transform="translate(-0.14298136,0.1429809)"
       style="fill:#c5d0d3;fill-opacity:0.51372549">
      <path
         style="fill:#c5d0d3;fill-opacity:0.51372549;stroke-width:0.02820762"
         d="m 63.293051,109.87854 c 0.0014,-0.0329 0.008,-0.0396 0.01704,-0.017 0.0081,0.0204 0.0071,0.0447 -0.0022,0.0541 -0.0094,0.009 -0.01604,-0.007 -0.01481,-0.037 z m 2.059156,0 c 0.0014,-0.0329 0.008,-0.0396 0.01704,-0.017 0.0081,0.0204 0.0071,0.0447 -0.0022,0.0541 -0.0094,0.009 -0.01604,-0.007 -0.01482,-0.037 z m 0,-7.30578 c 0.0014,-0.0329 0.008,-0.0395 0.01704,-0.017 0.0081,0.0204 0.0071,0.0447 -0.0022,0.0541 -0.0094,0.009 -0.01604,-0.007 -0.01482,-0.037 z m -4.515446,-0.27627 c 0,-0.006 0.02221,-0.0281 0.04936,-0.0494 0.04474,-0.0351 0.04574,-0.0341 0.01065,0.0106 -0.03685,0.047 -0.06001,0.0619 -0.06001,0.0387 z"
         id="path11316"
         inkscape:connector-curvature="0" />
      <path
         style="fill:#c5d0d3;fill-opacity:0.51372549;stroke-width:0.02820762"
         d="m 63.304506,106.228 c 0,-1.99357 0.0034,-2.80913 0.0075,-1.81234 0.0041,0.99679 0.0041,2.62789 0,3.62468 -0.0041,0.99679 -0.0075,0.18123 -0.0075,-1.81234 z m 2.059156,0 c 0,-1.99357 0.0034,-2.80913 0.0075,-1.81234 0.0041,0.99679 0.0041,2.62789 0,3.62468 -0.0041,0.99679 -0.0075,0.18123 -0.0075,-1.81234 z"
         id="path11314"
         inkscape:connector-curvature="0" />
      <path
         style="fill:#c5d0d3;fill-opacity:0.51372549;stroke-width:0.02820762"
         d="m 60.737611,106.2139 c 10e-7,-1.98582 0.0034,-2.79404 0.0075,-1.79605 0.0041,0.99799 0.0041,2.62275 -2e-6,3.61058 -0.0041,0.98782 -0.0075,0.17128 -0.0075,-1.81453 z m 7.192938,0.0423 c 0,-1.96255 0.0034,-2.76541 0.0075,-1.78414 0.0041,0.98128 0.0041,2.587 0,3.56827 -0.0041,0.98127 -0.0075,0.17841 -0.0075,-1.78413 z m -5.152751,-4.13758 c 0.02036,-0.008 0.04469,-0.007 0.05407,0.002 0.0094,0.009 -0.0073,0.016 -0.03702,0.0148 -0.03286,-10e-4 -0.03954,-0.008 -0.01704,-0.017 z m 4.62605,0 c 0.02036,-0.008 0.04469,-0.007 0.05406,0.002 0.0094,0.009 -0.0073,0.016 -0.03702,0.0148 -0.03286,-10e-4 -0.03954,-0.008 -0.01704,-0.017 z"
         id="path11312"
         inkscape:connector-curvature="0" />
      <path
         style="fill:#c5d0d3;fill-opacity:0.51372549;stroke-width:0.02820762"
         d="m 61.621229,110.32521 c 0.222016,-0.005 0.577432,-0.005 0.789813,3e-5 0.212382,0.005 0.03073,0.009 -0.403665,0.009 -0.434397,-10e-6 -0.608164,-0.004 -0.386148,-0.009 z m 4.638447,1e-5 c 0.21332,-0.005 0.56239,-0.005 0.77571,0 0.21332,0.005 0.03879,0.009 -0.387855,0.009 -0.42664,0 -0.601175,-0.004 -0.387855,-0.009 z m -4.624363,-8.20842 c 0.214247,-0.005 0.55697,-0.005 0.761606,2e-5 0.204635,0.005 0.02934,0.009 -0.389542,0.009 -0.418883,-2e-5 -0.586312,-0.004 -0.372064,-0.009 z m 4.62605,0 c 0.214247,-0.005 0.55697,-0.005 0.761605,2e-5 0.204636,0.005 0.02934,0.009 -0.389541,0.009 -0.418883,-2e-5 -0.586312,-0.004 -0.372064,-0.009 z"
         id="path11310"
         inkscape:connector-curvature="0" />
      <path
         style="fill:#c5d0d3;fill-opacity:0.51372549;stroke-width:0.02820762"
         d="m 61.010386,110.26545 c -0.05189,-0.0277 -0.131225,-0.1052 -0.176298,-0.17231 l -0.08195,-0.12202 v -3.74172 -3.74172 l 0.07514,-0.11588 c 0.04133,-0.0637 0.122387,-0.14243 0.180138,-0.17489 0.100515,-0.0565 0.143901,-0.059 1.015431,-0.059 h 0.910428 l 0.119652,0.0701 c 0.07978,0.0468 0.139352,0.11082 0.178775,0.19226 0.05911,0.1221 0.05913,0.12318 0.05913,3.82773 0,3.70454 -1.7e-5,3.70563 -0.05913,3.82773 -0.03942,0.0814 -0.09899,0.1455 -0.178775,0.19225 l -0.119652,0.0701 -0.914269,-10e-4 c -0.821642,-0.001 -0.923828,-0.006 -1.008617,-0.0515 z m 4.624639,-0.006 c -0.129931,-0.0792 -0.167192,-0.11995 -0.215552,-0.23569 -0.03553,-0.085 -0.04129,-0.61477 -0.04129,-3.80011 0,-3.70019 1.8e-5,-3.70134 0.05913,-3.82344 0.03942,-0.0814 0.09899,-0.1455 0.178775,-0.19226 l 0.119652,-0.0701 h 0.911791 c 0.911757,0 0.911795,1e-5 1.027403,0.0678 0.0646,0.0378 0.143483,0.11734 0.178776,0.18014 l 0.06316,0.11238 v 3.72802 c 0,3.38742 -0.0042,3.73626 -0.0459,3.81829 -0.0559,0.10996 -0.11526,0.16878 -0.23038,0.22831 -0.07517,0.0389 -0.217083,0.0453 -0.998717,0.0452 -0.87156,-1.1e-4 -0.915252,-0.003 -1.006855,-0.0585 z"
         id="path11308"
         inkscape:connector-curvature="0" />
    </g>
  </g>
</svg>
