<?xml version="1.0" encoding="UTF-8" standalone="no"?>
<!-- Created with Inkscape (http://www.inkscape.org/) -->

<svg
   xmlns:dc="http://purl.org/dc/elements/1.1/"
   xmlns:cc="http://creativecommons.org/ns#"
   xmlns:rdf="http://www.w3.org/1999/02/22-rdf-syntax-ns#"
   xmlns:svg="http://www.w3.org/2000/svg"
   xmlns="http://www.w3.org/2000/svg"
   xmlns:sodipodi="http://sodipodi.sourceforge.net/DTD/sodipodi-0.dtd"
   xmlns:inkscape="http://www.inkscape.org/namespaces/inkscape"
   width="13.874646mm"
   height="13.380886mm"
   viewBox="0 0 13.874646 13.380886"
   version="1.1"
   id="svg5199"
   inkscape:version="0.92.2 2405546, 2018-03-11"
   sodipodi:docname="iconStepForwards.svg">
  <defs
     id="defs5193" />
  <sodipodi:namedview
     id="base"
     pagecolor="#ffffff"
     bordercolor="#666666"
     borderopacity="1.0"
     inkscape:pageopacity="0.0"
     inkscape:pageshadow="2"
     inkscape:zoom="12.840361"
     inkscape:cx="18.739287"
     inkscape:cy="24.756964"
     inkscape:document-units="mm"
     inkscape:current-layer="layer1"
     showgrid="false"
     fit-margin-top="0"
     fit-margin-left="0"
     fit-margin-right="0"
     fit-margin-bottom="0"
     inkscape:window-width="1872"
     inkscape:window-height="983"
     inkscape:window-x="24"
     inkscape:window-y="48"
     inkscape:window-maximized="0" />
  <metadata
     id="metadata5196">
    <rdf:RDF>
      <cc:Work
         rdf:about="">
        <dc:format>image/svg+xml</dc:format>
        <dc:type
           rdf:resource="http://purl.org/dc/dcmitype/StillImage" />
        <dc:title />
      </cc:Work>
    </rdf:RDF>
  </metadata>
  <g
     inkscape:label="Layer 1"
     inkscape:groupmode="layer"
     id="layer1"
     transform="translate(-57.636118,-99.529044)">
    <path
       inkscape:connector-curvature="0"
       id="path11255"
       d="m 60.802866,107.88341 1.65907,-1.66296 -1.581902,-1.5858 -1.581901,-1.5858 1.589636,1.5858 1.589636,1.58579 -1.666804,1.66297 -1.666805,1.66296 z"
       style="fill:#c5d0d3;fill-opacity:0.51372549;stroke-width:0.01543354" />
    <path
       inkscape:connector-curvature="0"
       id="path11253"
       d="m 68.149242,109.56566 3.341345,-3.34522 -3.341345,-3.34522 -3.341345,-3.345214 3.349071,3.345214 3.34907,3.34522 -3.34907,3.34522 -3.34907,3.34523 z m -10.217061,1.78637 -0.300722,-0.30102 0.763857,-0.76003 0.763856,-0.76004 -0.75612,0.76006 -0.75612,0.76005 0.300702,0.301 c 0.165386,0.16555 0.29723,0.301 0.292985,0.301 -0.0042,0 -0.143041,-0.13546 -0.308438,-0.30102 z m 0.532519,-9.12888 -0.833309,-0.83341 0.324007,-0.32024 0.324008,-0.32024 -0.316243,0.32028 -0.316243,0.32029 0.833261,0.83337 c 0.458292,0.45835 0.829788,0.83337 0.825543,0.83337 -0.0042,0 -0.382705,-0.37504 -0.841024,-0.83342 z"
       style="fill:#c5d0d3;fill-opacity:0.51372549;stroke-width:0.01543354" />
    <path
       inkscape:connector-curvature="0"
       id="path11251"
       d="m 58.858259,112.27811 c -0.343704,-0.34378 -0.621443,-0.62506 -0.617199,-0.62506 0.0042,0 0.288929,0.28128 0.632632,0.62506 0.343704,0.34378 0.621443,0.62506 0.617199,0.62506 -0.0042,0 -0.288929,-0.28128 -0.632632,-0.62506 z m 0.01543,-12.13076 c 0.335214,-0.335296 0.612951,-0.609627 0.617196,-0.609627 0.0042,0 -0.266549,0.274331 -0.601762,0.609627 -0.335213,0.33529 -0.612951,0.60962 -0.617195,0.60962 -0.0042,0 0.266548,-0.27433 0.601761,-0.60962 z"
       style="fill:#c5d0d3;fill-opacity:0.51372549;stroke-width:0.01543354" />
    <path
       inkscape:connector-curvature="0"
       id="path11249"
       d="m 67.246325,106.76449 0.540055,-0.54403 -0.447449,-0.45144 -0.447448,-0.45144 0.455226,0.45144 0.455226,0.45143 -0.547833,0.54403 -0.547832,0.54403 z"
       style="fill:#c5d0d3;fill-opacity:0.51372549;stroke-width:0.01543354" />
    <path
       style="fill:#c5d0d3;fill-opacity:0.51372549;stroke-width:0.01543354"
       d="m 62.158085,99.537757 -0.926042,0.927073 -0.926042,0.92708 2.421041,2.41484 2.420524,2.41484 -2.420524,2.4138 -2.421041,2.41381 0.926042,0.92707 0.926042,0.92708 3.341398,-3.3414 3.341398,-3.3414 -3.341398,-3.34139 z"
       id="path11247"
       inkscape:connector-curvature="0"
       sodipodi:nodetypes="ccccccccccccc" />
  </g>
</svg>
